<svg xmlns="http://www.w3.org/2000/svg" width="184.052" height="67.852" viewBox="0 0 184.052 67.852">
  <g id="Logo" transform="translate(-204.145 -238.554)">
    <g id="Group_10" data-name="Group 10" transform="translate(289.236 258.567)">
      <g id="Group_4" data-name="Group 4" transform="translate(0 7.774)">
        <path id="Path_1" data-name="Path 1" d="M244.425,472.384a1.935,1.935,0,0,1-1.614-.719,3.617,3.617,0,0,1-.549-2.214,11.321,11.321,0,0,1,1.812-5.942c1.362-2.249,3.022-3.39,4.933-3.39a2.247,2.247,0,0,1,1.6.531,1.913,1.913,0,0,1,.564,1.453,3.163,3.163,0,0,1-.648,1.851,7.341,7.341,0,0,1-2.262,1.846c-.529.3-1.656.842-3.352,1.611a8.457,8.457,0,0,0-.109,1.311,2.118,2.118,0,0,0,.276,1.266.936.936,0,0,0,.782.328,2.8,2.8,0,0,0,1.173-.3,17.325,17.325,0,0,0,2.629-1.718.155.155,0,0,1,.092-.031.153.153,0,0,1,.123.061l.454.606a.153.153,0,0,1-.017.2C248.043,471.291,246.063,472.384,244.425,472.384Zm3.481-10.816a1.434,1.434,0,0,0-.895.352,3.691,3.691,0,0,0-1.042,1.482,13.866,13.866,0,0,0-.833,2.761,10.3,10.3,0,0,0,3.018-1.979,2.2,2.2,0,0,0,.713-1.475,1.234,1.234,0,0,0-.271-.841A.87.87,0,0,0,247.906,461.568Z" transform="translate(-242.262 -460.119)" fill="#222121"/>
      </g>
      <g id="Group_5" data-name="Group 5" transform="translate(7.967 7.183)">
        <path id="Path_2" data-name="Path 2" d="M270.991,476.126a4.545,4.545,0,0,1-2.612-.859,6.755,6.755,0,0,1-2.129-2.73,24.57,24.57,0,0,1-1.563-5.529q-.259.359-.67.949a15.48,15.48,0,0,1-2.718,3.187,3.252,3.252,0,0,1-1.908.731,1.659,1.659,0,0,1-1.1-.373,1.172,1.172,0,0,1-.453-.922,1.1,1.1,0,0,1,.3-.771.957.957,0,0,1,.718-.331,1.142,1.142,0,0,1,.849.525c.179.233.346.355.485.355a.784.784,0,0,0,.355-.106,4.22,4.22,0,0,0,.88-.793,13.864,13.864,0,0,0,1.252-1.524l1.669-2.463-.55-2.509a3.614,3.614,0,0,0-.419-1.281.493.493,0,0,0-.381-.235,1.109,1.109,0,0,0-.5.2,7.737,7.737,0,0,0-1.378.986.152.152,0,0,1-.1.04H261a.154.154,0,0,1-.108-.063l-.4-.551a.153.153,0,0,1,.025-.207,15.183,15.183,0,0,1,2.573-1.835,2.722,2.722,0,0,1,1.159-.418,1.1,1.1,0,0,1,.971.6,9.984,9.984,0,0,1,.848,2.934,13.722,13.722,0,0,1,2.838-3.185,4.143,4.143,0,0,1,2.278-.979,1.163,1.163,0,0,1,.835.306,1.017,1.017,0,0,1,.322.762.987.987,0,0,1-.449.831,3.341,3.341,0,0,1-1.579.305,2.841,2.841,0,0,0-1.675.638,10.783,10.783,0,0,0-2.274,2.827l.868,4.056a19.053,19.053,0,0,0,1.172,3.984,5.349,5.349,0,0,0,1.469,1.953,1.644,1.644,0,0,0,1.034.367c.52,0,.892-.318,1.135-.973a1.037,1.037,0,0,1,.983-.8.783.783,0,0,1,.6.277.969.969,0,0,1,.247.675,1.72,1.72,0,0,1-.826,1.362A3.381,3.381,0,0,1,270.991,476.126Z" transform="translate(-257.834 -458.963)" fill="#222121"/>
      </g>
      <g id="Group_6" data-name="Group 6" transform="translate(27.107 2.078)">
        <path id="Path_3" data-name="Path 3" d="M296.967,467.551a2.041,2.041,0,0,1-1.256-.341,1.068,1.068,0,0,1-.466-.872,1.008,1.008,0,0,1,.345-.759,1.211,1.211,0,0,1,.854-.316,4.591,4.591,0,0,1,.985.148,3.8,3.8,0,0,0,.9.14,2.266,2.266,0,0,0,1.262-.454,7.342,7.342,0,0,0,2.052-2.513,21.186,21.186,0,0,0,1.843-5.117,36.945,36.945,0,0,0,1.008-6.263,7.714,7.714,0,0,0-4.817,1.521,3.4,3.4,0,0,0-1.5,2.646,2.74,2.74,0,0,0,.7,1.529,1.636,1.636,0,0,1,.426.92.967.967,0,0,1-.269.7.873.873,0,0,1-.65.28,1.3,1.3,0,0,1-1.071-.673,3.469,3.469,0,0,1-.587-2.012,5.187,5.187,0,0,1,1.083-3.1,6.71,6.71,0,0,1,2.983-2.239,12.043,12.043,0,0,1,4.425-.774,7.553,7.553,0,0,0,2.117-.242.147.147,0,0,1,.045-.007.151.151,0,0,1,.093.032.153.153,0,0,1,.06.127c-.043,1.162-.039,1.3-.038,1.32a4.83,4.83,0,0,0,.036.56l.762,9.986a63.838,63.838,0,0,1,6.273-9.15A16.127,16.127,0,0,1,318.54,449a.159.159,0,0,1,.075-.019.155.155,0,0,1,.1.037.153.153,0,0,1,.045.169c-.63,1.726-1.318,4.04-2.044,6.879l-1.688,6.6q-.14.548-.372,1.605l-.3,1.324a8.073,8.073,0,0,0,1.731.21,7.339,7.339,0,0,0,1.47-.162.171.171,0,0,1,.031,0,.152.152,0,0,1,.11.046.153.153,0,0,1,.04.141l-.179.8a.154.154,0,0,1-.123.118,6.907,6.907,0,0,1-1.115.126,15.246,15.246,0,0,1-1.642-.125,12.214,12.214,0,0,0-1.524-.109,5.549,5.549,0,0,0-1.58.269.146.146,0,0,1-.045.007.153.153,0,0,1-.143-.208,47.415,47.415,0,0,0,1.582-5.307l1.062-4.212c.294-1.185.565-2.139.812-2.849-.7.887-1.63,2.17-2.775,3.832-1.227,1.792-2.618,4.087-4.133,6.82l-1.2,2.109a.154.154,0,0,1-.134.078.158.158,0,0,1-.034,0,.153.153,0,0,1-.119-.139l-.969-13.2a35.834,35.834,0,0,1-1.14,5.393,18.1,18.1,0,0,1-2.208,5.052,8.134,8.134,0,0,1-2.556,2.53A5.34,5.34,0,0,1,296.967,467.551Z" transform="translate(-295.245 -448.985)" fill="#222121"/>
      </g>
      <g id="Group_7" data-name="Group 7" transform="translate(51.078 7.376)">
        <path id="Path_4" data-name="Path 4" d="M348.773,472.045a.914.914,0,0,1-.641-.206.773.773,0,0,1-.228-.595,2.185,2.185,0,0,1,.117-.609l.357-1.212a12.019,12.019,0,0,1-2.4,1.951,3.688,3.688,0,0,1-1.925.656,1.6,1.6,0,0,1-1.347-.625,3.34,3.34,0,0,1-.608-2.074,8.432,8.432,0,0,1,.79-3.309A12.194,12.194,0,0,1,345,462.735a9.046,9.046,0,0,1,2.8-2.183,6.942,6.942,0,0,1,2.928-.538,7.682,7.682,0,0,1,.816.045l.279-.454a.153.153,0,0,1,.1-.07l.908-.192a.181.181,0,0,1,.032,0,.153.153,0,0,1,.113.05.155.155,0,0,1,.034.147l-1.033,3.481c-.409,1.375-.8,2.982-1.166,4.776a12.7,12.7,0,0,0-.3,1.869c0,.273.115.273.19.273a1.471,1.471,0,0,0,.623-.268,8.921,8.921,0,0,0,1.61-1.244.154.154,0,0,1,.106-.043h.009a.155.155,0,0,1,.109.056l.44.537a.153.153,0,0,1-.015.211c-1.06.967-1.723,1.538-2.026,1.747a7.692,7.692,0,0,1-1.713.912A3.1,3.1,0,0,1,348.773,472.045Zm.22-10.251a3.4,3.4,0,0,0-2.069.651,5.988,5.988,0,0,0-1.665,2.389,8.475,8.475,0,0,0-.778,3.467,2.116,2.116,0,0,0,.285,1.255.839.839,0,0,0,.7.352,2.976,2.976,0,0,0,1.931-.984,5.97,5.97,0,0,0,1.553-2.879l1.1-4.135A5.965,5.965,0,0,0,348.992,461.793Z" transform="translate(-342.097 -459.34)" fill="#222121"/>
      </g>
      <g id="Group_8" data-name="Group 8" transform="translate(63.131 7.114)">
        <path id="Path_5" data-name="Path 5" d="M366.4,471.4a.154.154,0,0,1-.148-.192l.963-3.7c.463-1.8.874-3.536,1.223-5.167a4.968,4.968,0,0,0,.12-.725c0-.165-.059-.177-.149-.177a1.2,1.2,0,0,0-.547.256,13.02,13.02,0,0,0-1.518,1.377.152.152,0,0,1-.108.045h0a.154.154,0,0,1-.11-.051l-.427-.482a.154.154,0,0,1,0-.206,10.708,10.708,0,0,1,2.674-2.157,4.864,4.864,0,0,1,2.088-.727.758.758,0,0,1,.489.151.519.519,0,0,1,.2.415,5.43,5.43,0,0,1-.185.988l-.394,1.632a17.4,17.4,0,0,1,2.687-3.063,2.489,2.489,0,0,1,1.508-.784,1.1,1.1,0,0,1,.8.311,1.018,1.018,0,0,1,.007,1.479,4.112,4.112,0,0,1-1.4.655,5.762,5.762,0,0,0-1.613.8,7.723,7.723,0,0,0-1.374,1.444,7.854,7.854,0,0,0-1.046,1.693,28.818,28.818,0,0,0-.916,3.394l-.621,2.67a.153.153,0,0,1-.149.119Z" transform="translate(-365.656 -458.829)" fill="#222121"/>
      </g>
      <g id="Group_9" data-name="Group 9" transform="translate(71.759 0)">
        <path id="Path_6" data-name="Path 6" d="M395.428,469.93a5.041,5.041,0,0,1-2.766-.782,7.65,7.65,0,0,1-2.263-2.473,43.542,43.542,0,0,1-2.075-4.414,14.948,14.948,0,0,0-1.223-2.413,5.688,5.688,0,0,0-.947-1.056l-1.282,5.694a.153.153,0,0,1-.15.12h-2.05a.155.155,0,0,1-.149-.19l1.8-7.5c.868-3.7,1.445-6.021,1.716-6.884a8.319,8.319,0,0,1,1-2.176,6.681,6.681,0,0,1,1.464-1.537,6.856,6.856,0,0,1,1.9-1.036,5.567,5.567,0,0,1,1.805-.36,1.869,1.869,0,0,1,1.161.307,1.033,1.033,0,0,1,.409.851,1,1,0,0,1-.368.776,1.324,1.324,0,0,1-.9.312,12.2,12.2,0,0,1-1.854-.208,3.444,3.444,0,0,0-.676-.08,1.108,1.108,0,0,0-.708.27,2.4,2.4,0,0,0-.626,1.019,28.414,28.414,0,0,0-.825,3.215l-.862,3.826a10.685,10.685,0,0,1,2.388-1.916,4.363,4.363,0,0,1,2.128-.626,1.677,1.677,0,0,1,1.276.566,2,2,0,0,1,.516,1.4,3.447,3.447,0,0,1-1.588,2.75,7.661,7.661,0,0,1-4.141,1.242,5.957,5.957,0,0,1,1.178.785A7.119,7.119,0,0,1,389.993,461a25.5,25.5,0,0,1,1.587,3.322,11.047,11.047,0,0,0,2.082,3.612,2.891,2.891,0,0,0,2.014.869,1.825,1.825,0,0,0,1.029-.27c.169-.115.372-.289.372-.471a1.349,1.349,0,0,0-.126-.465,1.734,1.734,0,0,1-.163-.664.931.931,0,0,1,.292-.673.947.947,0,0,1,.687-.293,1.006,1.006,0,0,1,.776.361,1.34,1.34,0,0,1,.314.921,2.427,2.427,0,0,1-.962,1.878A3.7,3.7,0,0,1,395.428,469.93Zm-9.05-12.154a9.265,9.265,0,0,0,2.759-.351,3.187,3.187,0,0,0,1.556-.94,1.993,1.993,0,0,0,.454-1.253,1.057,1.057,0,0,0-.244-.737.725.725,0,0,0-.564-.265c-.808,0-2.091.942-3.814,2.8Z" transform="translate(-382.519 -444.924)" fill="#222121"/>
      </g>
    </g>
    <path id="Path_7" data-name="Path 7" d="M330.008,278.006a28.385,28.385,0,0,1,2.21-11.2c2.409-5.336,4.958-15.173,3.047-22.222,0,0-3.465.179-4.421-6.033,0,0,4.719.717,5.555,5.2a5.072,5.072,0,0,0-1.852-1.912A20.976,20.976,0,0,1,337,251.278a39.628,39.628,0,0,1-2.568,14.038c-1.613,4.42-3.524,10.394-1.792,18.279l1.135,5.317-5.914-3.524Z" transform="translate(-108.329 0)" fill="#71b43c"/>
    <path id="Path_8" data-name="Path 8" d="M336.251,271.813s-3.211-.864-3.211-5.974a13.072,13.072,0,0,1,1-5.108c.926.687,4.122,4.361,4.122,7.616,0,2.061-.806,2.27-.806,2.27l1.075,1.524-.12.746s-1.762-1.015-3.256-5.227C335.056,267.662,335.056,270.469,336.251,271.813Z" transform="translate(-111.585 -13.934)" fill="#71b43c"/>
    <path id="Path_9" data-name="Path 9" d="M320.562,300.64s-6.511,1.135-7.169-12c0,0,9.259,4.5,8.124,10.175a1.774,1.774,0,0,0,1.234.9l.18.5a8.272,8.272,0,0,1-5.387-3.843S317.4,298.072,320.562,300.64Z" transform="translate(-99.241 -31.471)" fill="#71b43c"/>
    <path id="Path_10" data-name="Path 10" d="M353.265,261.687s3.046-.368,3.717-5.035a12.064,12.064,0,0,0-.244-4.8c-.936.506-4.337,3.442-4.764,6.416-.27,1.882.439,2.179.439,2.179l-1.182,1.25.011.7s1.743-.7,3.659-4.347C354.9,258.051,354.532,260.616,353.265,261.687Z" transform="translate(-123.014 -8.357)" fill="#71b43c"/>
    <path id="Path_11" data-name="Path 11" d="M347.107,293.985s5.594,2.048,8.278-9.5c0,0-8.933,2.511-8.834,7.727a1.6,1.6,0,0,1-1.239.6l-.239.413a7.455,7.455,0,0,0,5.393-2.547S350.326,292.214,347.107,293.985Z" transform="translate(-119.146 -28.862)" fill="#71b43c"/>
    <g id="Group_11" data-name="Group 11" transform="translate(204.145 249.605)">
      <path id="Path_12" data-name="Path 12" d="M324.276,268.286s-.956.8-.956,5.1-1.274,15.93-7.328,19.594c0,0,4.739-7.606,3.963-12.266,0,0-.6-.239-1.613,1.434s-3.883,6.511-6.511,8.363-5.615,7.766-5.615,11.888c0-4.122-2.987-10.036-5.615-11.888s-5.5-6.691-6.511-8.363-1.613-1.434-1.613-1.434c-.776,4.66,3.963,12.266,3.963,12.266-6.053-3.664-7.328-15.293-7.328-19.594s-.956-5.1-.956-5.1a29.86,29.86,0,0,0,5.257,28.992c5.886,6.909,5.5,11.968,5.124,16.169H313.9c-.379-4.2-.763-9.259,5.123-16.169A29.859,29.859,0,0,0,324.276,268.286Z" transform="translate(-286.472 -268.286)" fill="#ab481b"/>
      <rect id="Rectangle_7" data-name="Rectangle 7" width="15.649" height="1.868" transform="translate(11.952 46.464)" fill="#ab481b"/>
      <rect id="Rectangle_8" data-name="Rectangle 8" width="15.214" height="1.576" transform="translate(12.056 49.539)" fill="#ab481b"/>
      <rect id="Rectangle_9" data-name="Rectangle 9" width="10.799" height="1.492" transform="translate(14.308 52.508)" fill="#ab481b"/>
      <path id="Path_13" data-name="Path 13" d="M328.085,416.786a16.76,16.76,0,0,0,1.827,1.6h4.9a16.736,16.736,0,0,0,1.827-1.6Z" transform="translate(-312.617 -361.589)" fill="#ab481b"/>
      <path id="Path_14" data-name="Path 14" d="M255.527,424.5s.713,7.839-17.87,7.839-21.433-5.7-36.234-5.7c-18.2,0-30.423,8.99-30.423,20.227,0,11.9,17.267,7.729,17.267,7.729l-.658-1.48s-14.636,4.44-14.636-6.085,8.332-18.254,28.944-18.254c11.9,0,21.214,5.482,36.014,5.482,16.939,0,19.213-8.018,19.213-9.757Z" transform="translate(-122.369 -425.987)" fill="#ab481b"/>
    </g>
    <path id="Path_15" data-name="Path 15" d="M235.956,422.328s-1.425-1.857-4.056,4.448-11.594,26.963-13.65,33.623h.493s6.712-12.474,11.923-23.105C234.293,429.892,237.486,423.509,235.956,422.328Zm-.4,2.3c-.411,1.562-2.3,5.551-3.124,5.427,0,0-.7-.458.822-4.152S235.833,423.587,235.558,424.63Z" transform="translate(58.701 -175.197)" fill="#222121"/>
    <g id="Group_13" data-name="Group 13" transform="translate(286.842 283.946)">
      <path id="Path_17" data-name="Path 17" d="M271.309,515.082a3.734,3.734,0,0,1-1.757-.4,3.544,3.544,0,0,1-1.256-1.09,4.968,4.968,0,0,1-.737-1.657,8.436,8.436,0,0,1-.244-2.082,6.369,6.369,0,0,1,.3-1.953,5.714,5.714,0,0,1,.805-1.628,3.945,3.945,0,0,1,1.3-1.15,3.486,3.486,0,0,1,1.714-.429,3.011,3.011,0,0,1,2.083.686,2.359,2.359,0,0,1,.766,1.85,2.135,2.135,0,0,1-.272,1.145,1.019,1.019,0,0,1-.938.434,1.226,1.226,0,0,1-1.26-1.282,4.071,4.071,0,0,1,.115-.958,5.394,5.394,0,0,0,.136-.72.687.687,0,0,0-.2-.271.622.622,0,0,0-.379-.094.929.929,0,0,0-.587.208,1.873,1.873,0,0,0-.494.73,5.374,5.374,0,0,0-.354,1.322,12.833,12.833,0,0,0-.132,1.993,5.812,5.812,0,0,0,.6,2.831q.6,1.075,1.428,1.076a1.67,1.67,0,0,0,1.263-.489,4.358,4.358,0,0,0,.834-1.386l.537.513a6.111,6.111,0,0,1-.53,1.1,4.03,4.03,0,0,1-.737.883,3.539,3.539,0,0,1-.916.612A2.633,2.633,0,0,1,271.309,515.082Z" transform="translate(-252.104 -499.492)" fill="#222121"/>
      <path id="Path_18" data-name="Path 18" d="M289.752,506.143a4.861,4.861,0,0,1,.809,1.628,7.243,7.243,0,0,1,.279,2.053,7.551,7.551,0,0,1-.276,2.067,4.9,4.9,0,0,1-.805,1.662,3.891,3.891,0,0,1-1.349,1.135,3.943,3.943,0,0,1-1.793.394,3.615,3.615,0,0,1-2.906-1.381,4.923,4.923,0,0,1-.859-1.633,7.036,7.036,0,0,1-.315-2.175,7.364,7.364,0,0,1,.275-2.106,5.07,5.07,0,0,1,.827-1.643,3.642,3.642,0,0,1,1.307-1.07,4.218,4.218,0,0,1,3.5,0A3.819,3.819,0,0,1,289.752,506.143Zm-1.832,6.838a7.6,7.6,0,0,0,.232-1.342q.075-.79.075-1.835,0-.691-.072-1.578a7.769,7.769,0,0,0-.214-1.4,2.523,2.523,0,0,0-.476-.977.97.97,0,0,0-.769-.355.983.983,0,0,0-.812.385,2.733,2.733,0,0,0-.469,1,7.3,7.3,0,0,0-.208,1.318q-.057.755-.057,1.573,0,1.076.05,1.781a7.356,7.356,0,0,0,.244,1.416,2.408,2.408,0,0,0,.472.966.988.988,0,0,0,.78.356.972.972,0,0,0,.737-.331A2.334,2.334,0,0,0,287.92,512.98Z" transform="translate(-259.538 -499.492)" fill="#222121"/>
      <path id="Path_19" data-name="Path 19" d="M305.286,513.911h-4.338v-2.18h4.338Z" transform="translate(-268.529 -502.93)" fill="#222121"/>
      <path id="Path_20" data-name="Path 20" d="M315.806,511.036a4.648,4.648,0,0,1-1.736-.321,5.541,5.541,0,0,1-1.363-.755l-.494.691H311.6l-.093-5.061h.615a15.736,15.736,0,0,0,.53,1.523,7.865,7.865,0,0,0,.744,1.434,4.374,4.374,0,0,0,.977,1.077,2.013,2.013,0,0,0,1.264.416,1.79,1.79,0,0,0,1.492-.657,2.587,2.587,0,0,0,.519-1.654,2.152,2.152,0,0,0-.441-1.377,3.484,3.484,0,0,0-1.364-.964q-.6-.268-1.106-.5t-.948-.466a3.517,3.517,0,0,1-1.521-1.61,5.386,5.386,0,0,1-.5-2.341,4.845,4.845,0,0,1,.258-1.575,4.322,4.322,0,0,1,.752-1.358,3.58,3.58,0,0,1,1.21-.919,3.644,3.644,0,0,1,1.6-.355,3.881,3.881,0,0,1,1.582.325,5.684,5.684,0,0,1,1.159.652l.437-.592h.623l.057,4.775h-.615q-.215-.771-.5-1.577a7.614,7.614,0,0,0-.612-1.341,3.218,3.218,0,0,0-.809-.915,1.749,1.749,0,0,0-1.073-.341,1.556,1.556,0,0,0-1.263.6,2.285,2.285,0,0,0-.491,1.492,2.131,2.131,0,0,0,.426,1.374,3.5,3.5,0,0,0,1.328.939q.53.247,1.081.494t.981.474a3.8,3.8,0,0,1,1.578,1.527,4.918,4.918,0,0,1,.541,2.415,5.138,5.138,0,0,1-.308,1.759,4.1,4.1,0,0,1-.83,1.413,4.007,4.007,0,0,1-1.325.959A4.268,4.268,0,0,1,315.806,511.036Z" transform="translate(-273.688 -495.377)" fill="#222121"/>
      <path id="Path_21" data-name="Path 21" d="M337.417,506.143a4.869,4.869,0,0,1,.809,1.628,7.246,7.246,0,0,1,.279,2.053,7.571,7.571,0,0,1-.275,2.067,4.9,4.9,0,0,1-.806,1.662,3.883,3.883,0,0,1-1.349,1.135,3.944,3.944,0,0,1-1.793.394,3.613,3.613,0,0,1-2.906-1.381,4.934,4.934,0,0,1-.859-1.633,7.022,7.022,0,0,1-.315-2.175,7.365,7.365,0,0,1,.276-2.106,5.07,5.07,0,0,1,.826-1.643,3.648,3.648,0,0,1,1.307-1.07,4.218,4.218,0,0,1,3.5,0A3.815,3.815,0,0,1,337.417,506.143Zm-1.833,6.838a7.606,7.606,0,0,0,.233-1.342q.074-.79.075-1.835,0-.691-.071-1.578a7.757,7.757,0,0,0-.215-1.4,2.517,2.517,0,0,0-.476-.977.97.97,0,0,0-.769-.355.981.981,0,0,0-.812.385,2.741,2.741,0,0,0-.469,1,7.305,7.305,0,0,0-.207,1.318q-.057.755-.057,1.573,0,1.076.05,1.781a7.4,7.4,0,0,0,.244,1.416,2.4,2.4,0,0,0,.472.966.988.988,0,0,0,.78.356.971.971,0,0,0,.737-.331A2.322,2.322,0,0,0,335.585,512.98Z" transform="translate(-282.816 -499.492)" fill="#222121"/>
      <path id="Path_22" data-name="Path 22" d="M352.212,509.8H347.7v-.72c.125-.013.246-.03.364-.049a1.1,1.1,0,0,0,.313-.1.621.621,0,0,0,.314-.34,1.716,1.716,0,0,0,.083-.587V497.075a2.118,2.118,0,0,0-.111-.7,1.16,1.16,0,0,0-.3-.489,1.519,1.519,0,0,0-.433-.247,1.842,1.842,0,0,0-.512-.139v-.72l3.607-.257.107.158v13.191a1.57,1.57,0,0,0,.094.592.734.734,0,0,0,.3.356,2.39,2.39,0,0,0,.3.158,1.414,1.414,0,0,0,.375.1Z" transform="translate(-291.227 -494.529)" fill="#222121"/>
      <path id="Path_23" data-name="Path 23" d="M367.145,514.719l-3.414.286-.107-.138v-1.293h-.043c-.162.2-.321.4-.475.6a2.885,2.885,0,0,1-.554.528,3.166,3.166,0,0,1-.69.4,2.7,2.7,0,0,1-.947.128,1.849,1.849,0,0,1-1.655-.9,4.691,4.691,0,0,1-.575-2.536v-4.44a1.565,1.565,0,0,0-.107-.626,1.5,1.5,0,0,0-.285-.429.8.8,0,0,0-.37-.212,2.462,2.462,0,0,0-.412-.084v-.721l3.458-.256.078.148v6.561a3.06,3.06,0,0,0,.283,1.5.866.866,0,0,0,.777.484,1.326,1.326,0,0,0,.912-.365,2.358,2.358,0,0,0,.591-.78v-5.317a1.823,1.823,0,0,0-.093-.6,1.062,1.062,0,0,0-.272-.434.7.7,0,0,0-.368-.158q-.239-.039-.491-.059v-.721l3.479-.256.108.148v7.617a1.543,1.543,0,0,0,.1.587,1.082,1.082,0,0,0,.292.409.755.755,0,0,0,.352.163,2.709,2.709,0,0,0,.43.054Z" transform="translate(-296.154 -499.653)" fill="#222121"/>
      <path id="Path_24" data-name="Path 24" d="M382.418,511.769a7.852,7.852,0,0,1-.981.5,3.255,3.255,0,0,1-1.274.222,1.907,1.907,0,0,1-1.657-.749,3.616,3.616,0,0,1-.54-2.138V503.55h-1.288v-1.075h1.317v-2.99h2.319v2.99h2.011v1.075h-2v5.4a4.084,4.084,0,0,0,.234,1.636.848.848,0,0,0,.836.483,5.122,5.122,0,0,0,.539-.039,2.458,2.458,0,0,0,.481-.089Z" transform="translate(-305.514 -496.949)" fill="#222121"/>
      <path id="Path_25" data-name="Path 25" d="M393.231,509.8h-4.524v-.72q.186-.02.365-.049a1,1,0,0,0,.308-.1.669.669,0,0,0,.322-.34,1.549,1.549,0,0,0,.093-.587v-5.743a1.494,1.494,0,0,0-.115-.606,1.233,1.233,0,0,0-.286-.419,1.34,1.34,0,0,0-.39-.227,1.959,1.959,0,0,0-.476-.138v-.721l3.508-.256.107.148v7.834a1.444,1.444,0,0,0,.107.587.767.767,0,0,0,.308.36,2.045,2.045,0,0,0,.316.158,1.626,1.626,0,0,0,.358.1Zm-1.045-13.458a1.989,1.989,0,0,1-.419,1.277,1.2,1.2,0,0,1-1.989,0,1.989,1.989,0,0,1-.419-1.277,2.014,2.014,0,0,1,.419-1.283,1.2,1.2,0,0,1,1.993,0A2.026,2.026,0,0,1,392.186,496.345Z" transform="translate(-311.302 -494.529)" fill="#222121"/>
      <path id="Path_26" data-name="Path 26" d="M406.4,506.143a4.86,4.86,0,0,1,.809,1.628,7.247,7.247,0,0,1,.279,2.053,7.571,7.571,0,0,1-.275,2.067,4.895,4.895,0,0,1-.805,1.662,3.89,3.89,0,0,1-1.349,1.135,3.943,3.943,0,0,1-1.793.394,3.613,3.613,0,0,1-2.906-1.381,4.922,4.922,0,0,1-.859-1.633,7.021,7.021,0,0,1-.316-2.175,7.35,7.35,0,0,1,.276-2.106,5.05,5.05,0,0,1,.826-1.643,3.645,3.645,0,0,1,1.306-1.07,4.218,4.218,0,0,1,3.5,0A3.816,3.816,0,0,1,406.4,506.143Zm-1.833,6.838a7.6,7.6,0,0,0,.233-1.342q.075-.79.075-1.835,0-.691-.072-1.578a7.775,7.775,0,0,0-.215-1.4,2.509,2.509,0,0,0-.476-.977.969.969,0,0,0-.77-.355.982.982,0,0,0-.812.385,2.74,2.74,0,0,0-.469,1,7.3,7.3,0,0,0-.207,1.318q-.058.755-.057,1.573,0,1.076.05,1.781a7.365,7.365,0,0,0,.244,1.416,2.409,2.409,0,0,0,.472.966.988.988,0,0,0,.78.356.973.973,0,0,0,.737-.331A2.322,2.322,0,0,0,404.571,512.98Z" transform="translate(-316.508 -499.492)" fill="#222121"/>
      <path id="Path_27" data-name="Path 27" d="M426.573,514.785h-4.3v-.72l.33-.049a.717.717,0,0,0,.294-.1.592.592,0,0,0,.215-.316,2.187,2.187,0,0,0,.064-.611v-4.617a3.341,3.341,0,0,0-.269-1.514.856.856,0,0,0-.793-.508,1.225,1.225,0,0,0-.535.118,1.889,1.889,0,0,0-.484.345,1.964,1.964,0,0,0-.334.4c-.084.138-.154.26-.212.365v5.3a1.967,1.967,0,0,0,.072.577.651.651,0,0,0,.236.35,1.18,1.18,0,0,0,.286.158,1.691,1.691,0,0,0,.337.1v.72h-4.352v-.72c.119-.013.239-.031.361-.054a1.348,1.348,0,0,0,.312-.094.594.594,0,0,0,.315-.336,1.687,1.687,0,0,0,.086-.592v-5.742a1.663,1.663,0,0,0-.114-.6,1.4,1.4,0,0,0-.3-.484,1.061,1.061,0,0,0-.326-.2,1.721,1.721,0,0,0-.433-.108v-.721l3.415-.256.107.148v1.43h.029q.2-.246.487-.591a5.326,5.326,0,0,1,.53-.562,2.27,2.27,0,0,1,.695-.4,2.5,2.5,0,0,1,.916-.168,1.941,1.941,0,0,1,1.75.913,4.45,4.45,0,0,1,.583,2.422V512.9a1.745,1.745,0,0,0,.079.582.659.659,0,0,0,.294.346,2.087,2.087,0,0,0,.282.138,1.559,1.559,0,0,0,.383.1Z" transform="translate(-325.219 -499.511)" fill="#222121"/>
      <g id="Group_12" data-name="Group 12" transform="translate(0 1.273)">
        <path id="Path_28" data-name="Path 28" d="M247.654,498.132a.836.836,0,0,1,.379.42,1.843,1.843,0,0,1,.079.587V502.7a5.45,5.45,0,0,1,2.541,2.012v-.5H251.7a1.932,1.932,0,0,1,.745.134,1.258,1.258,0,0,1,.558.489,3.337,3.337,0,0,1,.333.863,6.5,6.5,0,0,1,.218,1.041h.544V500.9h-.544a6.18,6.18,0,0,1-.218,1,2.8,2.8,0,0,1-.333.8,1.365,1.365,0,0,1-.587.494,1.921,1.921,0,0,1-.716.128h-1.045v-5.4h1.474q.25,0,.633.015a2.334,2.334,0,0,1,.6.084,2.037,2.037,0,0,1,1.009.963,5.847,5.847,0,0,1,.716,1.612h.544v-3.571h-9v.769q.171.031.508.128A2.1,2.1,0,0,1,247.654,498.132Z" transform="translate(-241.999 -497.018)" fill="#222121"/>
        <path id="Path_29" data-name="Path 29" d="M251.407,511.54a12.547,12.547,0,0,1-.565,1.485,8.485,8.485,0,0,1-.773,1.475.8.8,0,0,1-.39.286,2.949,2.949,0,0,1-.562.148,3.912,3.912,0,0,1-.615.059c-.234.007-.434.01-.6.01a4.779,4.779,0,0,1-.848-.059.883.883,0,0,1-.49-.247.868.868,0,0,1-.159-.248l-.748-.077c-3.208-.883-3.295-2.422-3.295-2.422a8.355,8.355,0,0,0,3.88,1.716V513.3l0,0c0-.058,0-.114,0-.176V511.48c-.707-4.487-8.655-4.464-8.655-4.464,1.3,6.235,3.683,7.786,5.525,7.948a2.218,2.218,0,0,1-.356.089q-.344.059-.544.079v.77h9.527l.193-4.361Z" transform="translate(-237.584 -501.901)" fill="#222121"/>
      </g>
    </g>
  </g>
</svg>
